<svg data-v-ca0a4f76="" fill="black" height="36" viewBox="0 0 272 36" width="272" xmlns="http://www.w3.org/2000/svg" class="YcLogo" xmlns:xlink="http://www.w3.org/1999/xlink"><path data-v-ca0a4f76="" d="m6.2041 22.9999h4.576c2.32 0 4.16-.96 4.16-3.424 0-1.424-.656-2.288-1.76-2.752.816-.464 1.28-1.456 1.28-2.56 0-2.304-1.92-2.864-4.08-2.864h-4.176zm1.632-5.344h2.864c1.744 0 2.56.576 2.56 1.936 0 1.328-.8 2.032-2.464 2.032h-2.96zm0-4.88h2.8c1.296 0 2.176.512 2.176 1.712 0 1.36-.832 1.872-2.176 1.872h-2.8zm14.318 6.624c0 2.032-1.296 2.656-2.656 2.656-1.04 0-1.664-.544-1.664-1.36 0-1.184 1.68-1.584 4.32-1.84zm-2.976 3.808c1.536 0 2.416-.496 2.944-1.392.016.512.064.864.112 1.184h1.472c-.176-.816-.24-1.792-.224-3.248l.016-1.984c.016-2.432-1.04-3.552-3.424-3.552-1.664 0-3.328 1.04-3.456 2.896h1.504c.064-1.072.752-1.712 1.968-1.712 1.088 0 1.952.512 1.952 2.096v.208c-3.52.384-5.824.992-5.824 3.024 0 1.584 1.344 2.48 2.96 2.48zm10.058-8.96c-2.544 0-4.16 1.904-4.16 4.464 0 2.624 1.536 4.496 4.016 4.496 2.016 0 3.536-1.392 3.84-3.008h-1.504c-.208.896-1.056 1.728-2.288 1.728-1.28 0-2.48-1.056-2.48-3.232 0-2.16 1.2-3.168 2.48-3.168 1.136 0 2.016.72 2.224 1.744h1.472c-.208-1.472-1.488-3.024-3.6-3.024zm5.338-2.848v11.6h1.456v-2.88l1.008-1.088 2.928 3.968h1.776l-3.728-5.04 3.28-3.568h-1.792l-3.472 3.872v-6.864zm15.444 7.776c.176-2.736-1.376-4.928-4.016-4.928-2.352 0-4.176 1.728-4.176 4.464 0 2.544 1.504 4.496 4.224 4.496 2.096 0 3.472-1.232 3.856-2.704h-1.504c-.368.848-1.072 1.424-2.352 1.424-1.264 0-2.608-.896-2.656-2.752zm-4.016-3.68c1.552 0 2.432 1.216 2.48 2.432h-5.072c.128-1.728 1.312-2.432 2.592-2.432zm11.695.256c-.528-.912-1.424-1.504-2.816-1.504-1.984 0-3.68 1.664-3.68 4.48 0 2.864 1.696 4.48 3.68 4.48 1.392 0 2.288-.592 2.816-1.504v1.296h1.456v-11.6h-1.456zm.064 2.976c0 2.272-1.216 3.232-2.512 3.232-1.488 0-2.464-1.168-2.464-3.232s.976-3.232 2.464-3.232c1.296 0 2.512.96 2.512 3.232zm8.877 0c0-2.272 1.216-3.232 2.512-3.232 1.488 0 2.464 1.168 2.464 3.232s-.976 3.232-2.464 3.232c-1.296 0-2.512-.96-2.512-3.232zm-1.392-7.328v11.6h1.456v-1.296c.528.912 1.424 1.504 2.816 1.504 1.984 0 3.68-1.616 3.68-4.48 0-2.816-1.696-4.48-3.68-4.48-1.392 0-2.288.592-2.816 1.504v-4.352zm14.237 2.992-2.128 6.64-2.192-6.64h-1.616l3.103 8.608-.064.176c-.384 1.344-.848 1.408-1.808 1.408h-.592v1.216h.752c1.936 0 2.352-.576 2.992-2.432l3.072-8.976h-1.52z" class="YcLogo__Text"></path><path data-v-ca0a4f76="" d="m95 0h35v36h-35z" fill="#ff5a00"></path><path data-v-ca0a4f76="" d="m106 9.093c.144-.029.318-.085.462-.085.75-.029 1.501.028 2.251.056.116-.028.174.085.202.17 1.126 2.296 2.252 4.619 3.407 6.914.259.482.462.963.75 1.417.231-.369.433-.765.635-1.162 1.299-2.465 2.512-4.93 3.782-7.395.837.028 1.674-.057 2.511.085-.144.481-.433.878-.635 1.331-1.674 3.146-3.377 6.29-5.052 9.436-.058.1237-.088.2592-.086.396v6.744h-2.425v-6.574c0-.226.029-.481-.115-.708-1.559-2.862-3.089-5.723-4.648-8.614-.346-.68-.721-1.331-1.039-2.011z" fill="#fffefe"></path><g data-v-ca0a4f76="" clip-rule="evenodd" fill-rule="evenodd" class="YcLogo__Text"><path data-v-ca0a4f76="" d="m194.666 7.65c-.029-.237-.087-.62-.408-.65-.534 0-1.044.149-1.597.31l-.153.044c.171.96.181 1.932.192 2.908.005.526.011 1.053.042 1.58.005.76.012 1.522.019 2.285v.003c.028 3.084.057 6.183.01 9.283l-.008.334c-.024.985-.048 1.988-.284 2.942.502.089.988.078 1.482.067.166-.004.332-.008.501-.008.073-.236.138-.465.204-.694.066-.228.131-.457.204-.693.102.086.203.176.306.268.25.223.504.45.773.617.617.394 1.317.6415 2.045.7235.727.082 1.464-.0037 2.154-.2505.874-.325 1.574-.974 2.099-1.712.904-1.27 1.312-2.834 1.429-4.399.087-1.328-.03-2.686-.438-3.955-.437-1.329-1.312-2.568-2.566-3.218-1.166-.62-2.624-.62-3.819-.088-.66.256-1.209.692-1.763 1.131l-.249.197c0-1.151 0-2.273-.058-3.424 0-1.21-.03-2.39-.117-3.601zm2.741 7.261c.583-.059 1.166-.059 1.749.06.7.147 1.283.649 1.633 1.268.437.738.612 1.653.641 2.51.076.639.021 1.3-.033 1.945l-.025.298c-.087.974-.262 1.978-.758 2.834-.162.3048-.385.5725-.656.786-.271.2136-.584.3682-.918.454-1.4.354-2.916-.118-3.937-1.122-.145-.118-.32-.266-.291-.472v-6.14c.014-.133.014-.259.014-.384s0-.251.015-.384c.671-.767 1.516-1.505 2.566-1.653zm10.438-7.38c.42-.14273.878-.1213 1.283.06.379.236.641.59.816 1.003.263.886-.437 1.89-1.341 2.007-.7.089-1.458-.324-1.662-1.033-.292-.767.146-1.712.904-2.037zm-58.809.414c-1.225 0-2.391.531-3.383 1.21-1.341.945-2.274 2.39-2.857 3.926-.525 1.24-.729 2.539-.758 3.867-.065.529-.033 1.04-.001 1.56.011.178.023.356.03.536.088.915.233 1.86.554 2.745.437 1.328 1.195 2.539 2.245 3.454.904.767 1.983 1.387 3.149 1.623 1.604.178 3.324.148 4.84-.472.571-.2398 1.126-.5157 1.662-.826-.35-.502-.729-.975-1.137-1.388-.208.093-.411.193-.614.292-.507.25-1.01.497-1.573.623-.641.148-1.312.148-1.953.118-1.254-.118-2.479-.679-3.295-1.653-.962-1.063-1.429-2.48-1.604-3.896-.047-.808-.018-1.634.01-2.448.007-.199.014-.396.019-.593.03-.767.088-1.535.205-2.273.145-.767.466-1.505.816-2.184.525-.974 1.37-1.771 2.391-2.185 1.224-.501 2.624-.413 3.848.03.38.136.725.34 1.075.548.108.064.216.128.325.19l.189-.237c.293-.365.592-.738.832-1.15-.409-.355-.875-.59-1.342-.797-1.137-.561-2.42-.65-3.673-.62z"></path><path data-v-ca0a4f76="" d="m242.953 9.508c.675-.209 1.379-.388 2.083-.508-.123 1.323-.201 2.6498-.235 3.978.543.015 1.093.023 1.643.03.551.008 1.101.015 1.644.03-.175.5106-.381 1.0102-.617 1.496h-2.787v3.679c0 .381.009.768.019 1.155.014.584.028 1.171.01 1.746.01.37.01.738.01 1.106 0 .736 0 1.467.078 2.185.03.448.44.777.822.897.675.15 1.379.09 2.024-.06.176.389.264.838.235 1.256-.581.326-1.278.388-1.947.447l-.019.002c-.939.03-1.995-.12-2.67-.867-.448-.433-.498-1.06-.546-1.66-.012-.148-.023-.293-.04-.434-.036-.933-.039-1.877-.043-2.818-.002-.628-.004-1.256-.016-1.878v-4.786h-1.761c-.029-.5183-.029-1.0377 0-1.556h1.731c.111-.611.162-1.231.213-1.85.044-.533.088-1.064.169-1.59zm-80.217 3.141c.124.007.247.01.37.014.433.013.862.026 1.273.166 1.232.4246 2.266 1.2868 2.905 2.423.557.987.939 2.093.968 3.23.059 1.526.117 3.11-.352 4.576-.44 1.377-1.379 2.603-2.67 3.29-1.276.6575-2.754.8076-4.137.42-1.232-.33-2.289-1.167-2.993-2.244-.792-1.166-1.056-2.572-1.085-3.978-.03-1.346-.059-2.722.381-4.008.411-1.257 1.203-2.423 2.318-3.141.499-.329 1.056-.598 1.643-.718.348-.0361.698-.0471 1.048-.033zm-2.817 2.962c.382-.629 1.057-1.047 1.761-1.227.851-.21 1.819-.15 2.582.33.557.298.997.807 1.232 1.405.411.957.499 2.034.528 3.051.03.987.059 1.974-.088 2.961-.117.808-.411 1.556-.939 2.154-.645.718-1.643.957-2.552.897-.969-.06-1.966-.508-2.436-1.406-.44-.837-.616-1.824-.733-2.752-.059-.777-.117-1.555-.059-2.333.059-1.046.147-2.153.704-3.08zm12.001-2.513c.616-.21 1.232-.359 1.877-.479.264.599.411 1.257.47 1.915.251-.137.465-.313.678-.489.16-.131.319-.263.495-.379.91-.688 2.025-1.107 3.169-1.047.301.0284.593.1223.854.275.346.189.706.385.995.653.322.329.557.747.792 1.166.343-.155.624-.386.907-.62h.001c.153-.125.306-.252.471-.367.792-.568 1.702-1.017 2.699-1.107.91-.09 1.819.21 2.494.838l.089.09c.267.27.542.547.674.897.147.389.205.808.235 1.226.084 1.248.091 2.505.098 3.761.005.942.011 1.884.048 2.82v4.367c-.233 0-.467.003-.701.007-.472.006-.95.013-1.44-.007v-6.55l.001-.704c.004-1.171.008-2.343-.089-3.514-.058-.4491-.29-.8575-.646-1.137-.411-.27-.939-.24-1.408-.21-.841.09-1.511.617-2.149 1.12l-.022.017c-.147.135-.301.262-.455.39-.154.126-.308.253-.455.388-.071.049-.066.156-.061.243l.002.056v9.871h-2.112v-7.687c0-.628 0-1.256-.03-1.855-.005-.128-.008-.256-.01-.384-.01-.516-.019-1.046-.254-1.5-.44-.628-1.291-.748-1.965-.569-1.057.27-1.996.928-2.788 1.676-.117.09-.117.239-.117.388v9.961c-.616.03-1.232.03-1.849 0-.025-1.45-.034-2.906-.043-4.365-.012-1.941-.024-3.888-.074-5.835-.007-.193-.013-.386-.018-.579-.017-.583-.033-1.162-.099-1.724-.035-.141-.074-.277-.112-.41-.059-.207-.117-.407-.152-.607zm38.113-.479c-.675.15-1.35.27-2.025.36-.014.298-.014.605-.014.912 0 .306 0 .613-.015.912 0 1.315-.003 2.626-.006 3.936v.007c-.007 2.623-.013 5.24.006 7.872.704.03 1.408.03 2.113 0v-8.256l.002-1.148c.005-1.532.009-3.063-.061-4.595zm25.174.09c1.438.27 2.67 1.615 2.699 3.14.052 1.327.033 2.653.015 3.979-.014.947-.027 1.895-.015 2.842v.688c0 .448.03.897.147 1.346.073.37.364.597.645.816.06.047.12.093.177.14-.077.1105-.152.2225-.225.336-.214.324-.432.655-.714.921-.215.192-.479.008-.657-.117-.016-.0104-.031-.0211-.047-.032-.499-.39-.851-.958-1.145-1.526-.234.135-.433.3-.631.464s-.396.329-.63.463c-.763.509-1.673.808-2.612.778-.821.03-1.672-.12-2.406-.508-1.203-.659-1.877-2.094-1.848-3.44 0-1.316.645-2.603 1.672-3.38 1.233-.957 2.817-1.257 4.313-1.376.452-.04.917-.054 1.387-.067.232-.006.464-.013.697-.023.029-.688-.03-1.376-.118-2.064-.088-.568-.352-1.166-.88-1.466-.616-.329-1.35-.358-2.054-.239-1.291.15-2.494.718-3.55 1.496l-.151-.214-.001-.002c-.241-.34-.476-.67-.67-1.04-.117-.21.059-.39.235-.48 1.408-.807 2.964-1.495 4.607-1.465h.704c.352-.03.704-.03 1.056.03zm-1.218 6.88.338-.03c.317-.036.634-.007.95.021.212.02.423.039.634.039-.01.369-.013.738-.016 1.107-.007.737-.013 1.475-.072 2.213-.029.628-.469 1.107-.909 1.495-.528.42-1.145.808-1.849.898-.587.06-1.203.03-1.731-.21-.469-.179-.792-.628-.968-1.106-.141-.36-.132-.778-.122-1.176.002-.099.005-.195.005-.29l.009-.155c.023-.402.047-.817.255-1.161.41-.688 1.115-1.197 1.877-1.406.51-.148 1.059-.194 1.599-.24zm23.341-6.85c1.213.3058 2.275 1.0385 2.992 2.064.585.8413.976 1.8016 1.145 2.812.146.957.205 1.944.146 2.901-.029 1.585-.498 3.17-1.437 4.427-.763 1.017-1.937 1.615-3.14 1.854-1.467.27-3.051 0-4.283-.897-1.086-.778-1.761-2.034-2.142-3.29-.178-.57-.224-1.142-.271-1.732l-.001-.003-.022-.27c-.029-1.136-.029-2.273.176-3.38.294-1.256.91-2.482 1.849-3.38.694-.654 1.577-1.0725 2.523-1.196.822-.0896 1.652-.0593 2.465.09zm-4.431 3.47c.323-.928 1.115-1.735 2.113-1.855.704-.09 1.438-.09 2.054.09.645.3 1.173.808 1.555 1.406.411.807.528 1.735.587 2.632.058.867.029 1.735 0 2.602l-.02.253c-.049.639-.099 1.293-.333 1.901-.205.568-.586 1.137-1.114 1.436-.437.2378-.915.3899-1.409.448l-.235.03h-.234c-.235 0-.499-.03-.734-.09-.616-.119-1.232-.448-1.643-.957-.44-.508-.645-1.166-.763-1.824-.151-.846-.172-1.692-.194-2.538l-.011-.423c.005-.166.007-.332.009-.499.013-.887.027-1.781.372-2.612zm13.013-3.283c.404-.12.805-.241 1.217-.337.353.659.411 1.436.441 2.154.23-.17.43-.387.632-.605h.001c.081-.088.163-.177.247-.262.909-.928 2.259-1.496 3.55-1.257v.18c-.171.366-.303.754-.435 1.143-.094.278-.189.557-.299.831-.024.101-.154.095-.247.091l-.031-.001c-.005-.0001-.01-.0001-.015 0-.557 0-1.174 0-1.672.299-.499.299-.939.688-1.291 1.166-.309.394-.302.925-.296 1.413l.002.203c-.029.777-.058 1.555-.029 2.333v6.311c-.704.03-1.408.03-2.113 0v-7.03c0-1.584 0-3.2-.058-4.785-.034-.2656-.081-.5292-.142-.79-.06-.28-.122-.563-.152-.855.233-.065.462-.133.69-.202zm-51.512.183-.142.049c.032.148.069.297.106.446.097.391.195.787.217 1.199.084 1.432.093 2.85.101 4.273.004.568.008 1.137.016 1.71 0 .971.015 1.944.029 2.916.015.972.03 1.944.03 2.916.41.02.821.013 1.232.007.205-.004.411-.007.616-.007 0-1.135-.003-2.274-.006-3.414-.007-2.284-.013-4.571.006-6.846.822-.688 1.731-1.316 2.729-1.705.469-.18.968-.18 1.438-.15.645.03 1.232.54 1.437 1.167.103.922.105 1.829.107 2.741.001.391.002.783.011 1.178 0 1.166.014 2.34.029 3.514s.029 2.348.029 3.515c.704.03 1.409.03 2.113 0 0-.718-.008-1.428-.015-2.139-.007-.71-.015-1.42-.015-2.138l.002-1.077c.004-1.786.008-3.555-.09-5.324-.058-.599-.146-1.257-.498-1.735-.44-.688-1.174-1.107-1.908-1.376-1.261-.479-2.611 0-3.726.658-.329.184-.622.416-.914.648-.228.18-.455.36-.699.518-.083-.6636-.241-1.3157-.47-1.944-.596 0-1.192.204-1.765.4z"></path></g></svg>