<svg fill="none" height="20" viewBox="0 0 126 20" width="126" xmlns="http://www.w3.org/2000/svg"><g stroke="#3e4048" stroke-width="2.7"><path d="m50.4316 12.7629c3.1874 0 4.7811-4.78109 8.4998-4.78109 3.7186 0 4.2498 4.78109 8.4997 4.78109s5.3124-4.78109 8.4998-4.78109"/><path d="m0 12.7629c3.1874 0 4.7811-4.78109 8.49974-4.78109 3.71866 0 4.24986 4.78109 8.49976 4.78109 4.2498 0 5.3123-4.78109 8.4997-4.78109"/><g stroke-linecap="round"><path d="m100.863 11.9535c3.188 0 4.781-3.16212 8.5-3.16212s3.967 2.92262 8.014 2.11312c4.048-.8095 5.667-.8095 5.667-.8095"/><path d="m123.882 10.2633-8.241-8.24097"/><path d="m123.854 10.4374-8.213 8.2126"/></g><path d="m24.9326 7.98184c3.1874 0 4.7811 4.78106 8.4998 4.78106 3.7186 0 4.2498-4.78106 8.4997-4.78106s5.3123 4.78106 8.4997 4.78106"/><path d="m75.9307 7.98184c3.1874 0 4.7811 4.78106 8.4997 4.78106s4.2499-4.78106 8.4997-4.78106c4.2499 0 5.3124 3.97156 8.4999 3.97156"/></g></svg>