<svg data-v-208aa0bd="" width="78" height="25" viewBox="0 0 78 25" xmlns="http://www.w3.org/2000/svg" class="" xmlns:xlink="http://www.w3.org/1999/xlink"><path data-v-208aa0bd="" fill-rule="evenodd" clip-rule="evenodd" d="M9.16648 6.73854C14.3279 6.73854 18.0481 10.9333 18.0481 15.8693C18.0481 20.8053 14.3279 25 9.16648 25C6.75337 25 4.60838 24.0735 3.04991 22.3383V24.5957H0V0H3.04991V9.40027C4.60838 7.68194 6.75337 6.73854 9.16648 6.73854ZM8.66375 22.254C12.2164 22.254 14.9479 19.3902 14.9479 15.8693C14.9479 12.3484 12.2164 9.4845 8.66375 9.4845C6.1836 9.4845 4.07213 10.9164 3.04991 12.9885V18.8005C4.07213 20.8558 6.1836 22.254 8.66375 22.254ZM29.879 22.3551C26.5275 22.3551 23.9803 19.9461 23.6452 16.8295H38.4087C38.4925 16.4589 38.5595 15.9198 38.5595 15.4818C38.5595 10.6806 34.8896 6.73854 29.7115 6.73854C24.4328 6.73854 20.5282 10.8154 20.5282 15.8693C20.5282 20.9232 24.3155 25 29.9628 25C32.996 25 35.6269 23.8544 37.4535 21.7823L35.3588 19.8282C33.9344 21.3949 32.0073 22.3551 29.879 22.3551ZM29.7115 9.38342C26.8124 9.38342 24.3657 11.5061 23.7625 14.2857H35.3588C34.8896 11.4724 32.6441 9.38342 29.7115 9.38342ZM56.0378 18.8005C55.0156 20.8558 52.9042 22.254 50.424 22.254C46.8714 22.254 44.1399 19.3902 44.1399 15.8693C44.1399 12.3484 46.8714 9.4845 50.424 9.4845C52.9042 9.4845 55.0156 10.9164 56.0378 12.9885V18.8005ZM49.9213 6.73854C52.3344 6.73854 54.4794 7.68194 56.0378 9.40027V7.14286H59.0878V24.5957H56.0378V22.3383C54.4794 24.0735 52.3344 25 49.9213 25C44.7599 25 41.0397 20.8053 41.0397 15.8693C41.0397 10.9333 44.7599 6.73854 49.9213 6.73854ZM74.9501 7.14286V18.7163C73.8944 20.4852 72.0678 22.254 69.8893 22.254C67.2248 22.254 65.3814 20.3167 65.3814 17.7055V7.14286H62.3315V17.874C62.3315 22.0856 65.2139 25 69.3195 25C71.7494 25 73.71 23.5512 74.9501 21.9171V24.5957H78V7.14286H74.9501Z"></path></svg>