<svg data-v-10c41ab4="" width="220" height="52" viewBox="0 0 220 52" fill="none" xmlns="http://www.w3.org/2000/svg" class="ProductHuntBadge__Svg" xmlns:xlink="http://www.w3.org/1999/xlink"><rect data-v-10c41ab4="" x="0.5" y="0.5" width="219" height="51" rx="6.5" stroke="#BABEC9" class="ProductHuntBadge__Frame"></rect> <path data-v-10c41ab4="" d="M52.975 31.93L52.825 32.995H54.955L54.595 35.605H52.48L52.33 36.67H54.445L53.995 40H55.105L55.555 36.67H57.895L57.445 40H58.555L59.005 36.67H61.03L61.18 35.605H59.155L59.515 32.995H61.525L61.675 31.93H59.665L60.055 29.125H58.945L58.555 31.93H56.215L56.605 29.125H55.495L55.105 31.93H52.975ZM56.065 32.995H58.405L58.045 35.605H55.705L56.065 32.995ZM66.0552 40V29.125H65.1252C64.5402 30.295 63.7152 30.52 62.1702 30.565V31.495H64.6902V40H66.0552ZM72.3623 29.125V40H73.8923V35.695H75.7673C78.4223 35.695 80.2823 35.11 80.2823 32.41C80.2823 29.725 78.4223 29.125 75.7673 29.125H72.3623ZM75.8873 30.415C77.4923 30.415 78.7223 30.64 78.7223 32.41C78.7223 34.195 77.4923 34.36 75.8873 34.36H73.8923V30.415H75.8873ZM85.5619 31.9C85.3969 31.885 85.2919 31.885 85.1569 31.885C84.0919 31.93 83.2819 32.425 82.8769 33.34V31.93H81.5419V40H82.9069V35.77C82.9069 33.985 83.5369 33.295 84.7969 33.295C85.0219 33.295 85.2769 33.31 85.5619 33.355V31.9ZM87.6575 35.995C87.6575 33.79 88.8275 32.995 90.0725 32.995C91.3175 32.995 92.4875 33.835 92.4875 35.995C92.4875 38.065 91.3175 38.995 90.0725 38.995C88.8275 38.995 87.6575 38.155 87.6575 35.995ZM90.0725 31.795C88.1975 31.795 86.2025 33.07 86.2025 35.995C86.2025 38.92 88.1975 40.195 90.0725 40.195C91.9475 40.195 93.9425 38.92 93.9425 35.995C93.9425 33.07 91.9475 31.795 90.0725 31.795ZM101.227 33.205C100.732 32.35 99.8923 31.795 98.5873 31.795C96.7273 31.795 95.1373 33.355 95.1373 35.995C95.1373 38.68 96.7273 40.195 98.5873 40.195C99.8923 40.195 100.732 39.64 101.227 38.785V40H102.592V29.125H101.227V33.205ZM101.287 35.995C101.287 38.125 100.147 39.025 98.9323 39.025C97.5373 39.025 96.6223 37.93 96.6223 35.995C96.6223 34.06 97.5373 32.965 98.9323 32.965C100.147 32.965 101.287 33.865 101.287 35.995ZM109.74 40H111.105V31.93H109.74V36.37C109.74 38.11 108.99 39.01 107.685 39.01C106.185 39.01 105.99 37.93 105.99 36.685V31.93H104.625V37.09C104.625 38.935 105.345 40.195 107.205 40.195C108.54 40.195 109.275 39.61 109.74 38.845V40ZM116.615 31.795C114.23 31.795 112.715 33.58 112.715 35.98C112.715 38.44 114.155 40.195 116.48 40.195C118.37 40.195 119.795 38.89 120.08 37.375H118.67C118.475 38.215 117.68 38.995 116.525 38.995C115.325 38.995 114.2 38.005 114.2 35.965C114.2 33.94 115.325 32.995 116.525 32.995C117.59 32.995 118.415 33.67 118.61 34.63H119.99C119.795 33.25 118.595 31.795 116.615 31.795ZM122.01 31.93H120.735V33.025H122.01V37.975C122.01 39.655 122.37 40 123.915 40H124.905V38.86H124.215C123.435 38.86 123.375 38.65 123.375 37.81V33.025H124.905V31.93H123.375V29.905H122.01V31.93ZM130.988 35.995C130.988 33.79 132.158 32.995 133.403 32.995C134.648 32.995 135.818 33.835 135.818 35.995C135.818 38.065 134.648 38.995 133.403 38.995C132.158 38.995 130.988 38.155 130.988 35.995ZM133.403 31.795C131.528 31.795 129.533 33.07 129.533 35.995C129.533 38.92 131.528 40.195 133.403 40.195C135.278 40.195 137.273 38.92 137.273 35.995C137.273 33.07 135.278 31.795 133.403 31.795ZM139.323 31.93H138.198V33.025H139.323V40H140.688V33.025H142.203V31.93H140.688V31.27C140.688 30.43 140.808 30.265 141.528 30.265H142.203V29.125H141.498C139.653 29.125 139.323 29.665 139.323 31.345V31.93ZM147.63 31.93H146.355V33.025H147.63V37.975C147.63 39.655 147.99 40 149.535 40H150.525V38.86H149.835C149.055 38.86 148.995 38.65 148.995 37.81V33.025H150.525V31.93H148.995V29.905H147.63V31.93ZM153.63 29.125H152.265V40H153.63V35.62C153.63 33.88 154.44 32.98 155.76 32.98C157.32 32.98 157.53 34.06 157.53 35.305V40H158.895V34.9C158.895 33.055 158.19 31.795 156.24 31.795C154.875 31.795 154.095 32.38 153.63 33.145V29.125ZM168.061 36.415C168.226 33.85 166.771 31.795 164.296 31.795C162.091 31.795 160.381 33.415 160.381 35.98C160.381 38.365 161.791 40.195 164.341 40.195C166.306 40.195 167.596 39.04 167.956 37.66H166.546C166.201 38.455 165.541 38.995 164.341 38.995C163.156 38.995 161.896 38.155 161.851 36.415H168.061ZM164.296 32.965C165.751 32.965 166.576 34.105 166.621 35.245H161.866C161.986 33.625 163.096 32.965 164.296 32.965ZM180.757 34.555C180.757 38.26 178.582 38.71 176.347 38.71H174.952V30.415H176.347C178.582 30.415 180.757 30.865 180.757 34.555ZM173.422 29.125V40H176.392C179.827 40 182.317 38.695 182.317 34.555C182.317 30.43 179.827 29.125 176.392 29.125H173.422ZM189.063 36.625C189.063 38.53 187.848 39.115 186.573 39.115C185.598 39.115 185.013 38.605 185.013 37.84C185.013 36.73 186.588 36.355 189.063 36.115V36.625ZM186.273 40.195C187.713 40.195 188.538 39.73 189.033 38.89C189.048 39.37 189.093 39.7 189.138 40H190.518C190.353 39.235 190.293 38.32 190.308 36.955L190.323 35.095C190.338 32.815 189.348 31.765 187.113 31.765C185.553 31.765 183.993 32.74 183.873 34.48H185.283C185.343 33.475 185.988 32.875 187.128 32.875C188.148 32.875 188.958 33.355 188.958 34.84V35.035C185.658 35.395 183.498 35.965 183.498 37.87C183.498 39.355 184.758 40.195 186.273 40.195ZM196.769 31.93L194.774 38.155L192.719 31.93H191.204L194.114 40L194.054 40.165C193.694 41.425 193.259 41.485 192.359 41.485H191.804V42.625H192.509C194.324 42.625 194.714 42.085 195.314 40.345L198.194 31.93H196.769Z" fill="#26282D"></path> <g data-v-10c41ab4="" clip-path="url(#clip0_843_629)"><g data-v-10c41ab4="" opacity="0.8"><path data-v-10c41ab4="" fill-rule="evenodd" clip-rule="evenodd" d="M16.3607 38.3901L20.7629 29.0005L20.4142 28.8135L27.1847 31.6119L22.4987 41.4393C22.3601 41.722 22.1819 41.6494 22.0279 41.293L20.4142 37.9853L16.8304 38.7641C16.3684 38.8521 16.2221 38.6739 16.3607 38.3901ZM34.3504 29.0293L34.3369 29.0005L34.8726 28.8135L34.3504 29.0293ZM34.8547 38.022L33.2589 41.293C33.1049 41.6494 32.9344 41.722 32.7881 41.4393L28.1021 31.6119L34.3504 29.0293L38.7391 38.3901C38.8854 38.6739 38.7314 38.8521 38.2694 38.7641L34.8547 38.022Z" fill="#DE7818"></path> <path data-v-10c41ab4="" d="M20.7629 29.0005L21.2609 29.234L21.4821 28.7621L21.0228 28.5158L20.7629 29.0005ZM16.3607 38.3901L16.855 38.6315L16.8587 38.6236L16.3607 38.3901ZM20.4142 28.8135L20.6243 28.3052L20.1542 29.2982L20.4142 28.8135ZM27.1847 31.6119L27.6811 31.8486L27.9307 31.3251L27.3948 31.1036L27.1847 31.6119ZM22.4987 41.4393L22.9926 41.6814L22.9951 41.676L22.4987 41.4393ZM22.0279 41.293L22.5328 41.0748L22.5277 41.0632L22.5222 41.0518L22.0279 41.293ZM20.4142 37.9853L20.9085 37.7441L20.7192 37.3562L20.2974 37.4478L20.4142 37.9853ZM16.8304 38.7641L16.9333 39.3044L16.9403 39.303L16.9472 39.3015L16.8304 38.7641ZM34.3369 29.0005L34.1556 28.4812L33.5801 28.6821L33.8389 29.234L34.3369 29.0005ZM34.8726 28.8135L35.0827 29.3218L34.6913 28.2942L34.8726 28.8135ZM34.8547 38.022L34.9715 37.4846L34.5496 37.3929L34.3603 37.7809L34.8547 38.022ZM33.2589 41.293L32.7646 41.0518L32.759 41.0632L32.754 41.0748L33.2589 41.293ZM32.7881 41.4393L32.2916 41.676L32.2955 41.6841L32.2996 41.6921L32.7881 41.4393ZM28.1021 31.6119L27.892 31.1036L27.356 31.3251L27.6056 31.8486L28.1021 31.6119ZM38.7391 38.3901L38.2411 38.6236L38.2455 38.6329L38.2502 38.6421L38.7391 38.3901ZM38.2694 38.7641L38.1526 39.3015L38.1595 39.303L38.1665 39.3044L38.2694 38.7641ZM20.2649 28.767L15.8627 38.1566L16.8587 38.6236L21.2609 29.234L20.2649 28.767ZM20.1542 29.2982L20.5029 29.4852L21.0228 28.5158L20.6741 28.3288L20.1542 29.2982ZM27.3948 31.1036L20.6243 28.3052L20.2041 29.3218L26.9746 32.1202L27.3948 31.1036ZM22.9951 41.676L27.6811 31.8486L26.6882 31.3752L22.0022 41.2026L22.9951 41.676ZM21.523 41.5111C21.5725 41.6256 21.6337 41.7412 21.7115 41.842C21.784 41.9359 21.907 42.0641 22.0933 42.1269C22.3142 42.2014 22.5364 42.1551 22.7065 42.0344C22.8513 41.9317 22.9387 41.7912 22.9925 41.6814L22.0048 41.1972C21.9894 41.2287 22.0025 41.1851 22.0701 41.1372C22.1086 41.1099 22.1658 41.0807 22.2399 41.0685C22.3154 41.0561 22.3863 41.0649 22.4448 41.0846C22.55 41.1201 22.5909 41.181 22.5823 41.1699C22.579 41.1657 22.5603 41.1386 22.5328 41.0748L21.523 41.5111ZM19.9199 38.2264L21.5336 41.5341L22.5222 41.0518L20.9085 37.7441L19.9199 38.2264ZM16.9472 39.3015L20.531 38.5227L20.2974 37.4478L16.7136 38.2266L16.9472 39.3015ZM15.8665 38.1487C15.7636 38.3594 15.6421 38.8023 16.0032 39.126C16.1541 39.2613 16.3335 39.3123 16.48 39.3291C16.6288 39.3461 16.7832 39.3329 16.9333 39.3044L16.7275 38.2238C16.6887 38.2312 16.659 38.2346 16.6376 38.236C16.627 38.2366 16.619 38.2367 16.6135 38.2366C16.6107 38.2366 16.6086 38.2365 16.6072 38.2364C16.6058 38.2363 16.6052 38.2362 16.6052 38.2362C16.6052 38.2362 16.606 38.2363 16.6075 38.2366C16.609 38.2368 16.6112 38.2373 16.6142 38.238C16.6201 38.2394 16.6294 38.2419 16.6411 38.2465C16.6648 38.2557 16.7003 38.2736 16.7374 38.307C16.8241 38.3847 16.8584 38.488 16.8604 38.5662C16.8621 38.6288 16.8438 38.6542 16.8549 38.6314L15.8665 38.1487ZM33.8389 29.234L33.8524 29.2628L34.8484 28.7958L34.8349 28.767L33.8389 29.234ZM34.6913 28.2942L34.1556 28.4812L34.5181 29.5197L35.0538 29.3327L34.6913 28.2942ZM34.5605 29.5376L35.0827 29.3218L34.6625 28.3052L34.1403 28.521L34.5605 29.5376ZM34.3603 37.7809L32.7646 41.0518L33.7532 41.5341L35.349 38.2632L34.3603 37.7809ZM32.754 41.0748C32.7257 41.1403 32.7068 41.1683 32.7031 41.173C32.694 41.185 32.7355 41.1219 32.8429 41.0853C32.9029 41.0648 32.9748 41.056 33.0506 41.0686C33.1246 41.0808 33.1809 41.1098 33.2179 41.1358C33.2824 41.1811 33.2944 41.2209 33.2765 41.1865L32.2996 41.6921C32.355 41.799 32.4431 41.9358 32.5855 42.0358C32.753 42.1535 32.9748 42.2026 33.1983 42.1263C33.3859 42.0623 33.508 41.9319 33.5787 41.8389C33.6549 41.7386 33.7151 41.6239 33.7638 41.5111L32.754 41.0748ZM33.2845 41.2026L28.5985 31.3752L27.6056 31.8486L32.2916 41.676L33.2845 41.2026ZM28.3122 32.1202L34.5605 29.5376L34.1403 28.521L27.892 31.1036L28.3122 32.1202ZM33.8524 29.2628L38.2411 38.6236L39.2371 38.1566L34.8484 28.7958L33.8524 29.2628ZM38.2502 38.6421C38.2615 38.6639 38.2412 38.6362 38.2425 38.5698C38.2441 38.4867 38.2807 38.3818 38.3678 38.3047C38.4411 38.2398 38.5044 38.2353 38.4961 38.2362C38.4907 38.2368 38.4528 38.2391 38.3723 38.2238L38.1665 39.3044C38.317 39.333 38.4716 39.3461 38.6204 39.3292C38.7663 39.3126 38.9457 39.2622 39.0969 39.1283C39.4656 38.8019 39.3388 38.3531 39.2279 38.1381L38.2502 38.6421ZM38.3862 38.2266L34.9715 37.4846L34.7379 38.5595L38.1526 39.3015L38.3862 38.2266Z" fill="#D74343"></path></g> <circle data-v-10c41ab4="" cx="27.5501" cy="22.5379" r="11.5379" fill="#EFC511"></circle> <circle data-v-10c41ab4="" cx="27.5501" cy="22.5379" r="9.9495" fill="#D5AF10"></circle> <circle data-v-10c41ab4="" cx="27.8252" cy="22.825" r="9.625" fill="#E0B808"></circle> <path data-v-10c41ab4="" d="M29.0981 27.5H27.3145V20.7778C26.6628 21.3872 25.8947 21.8379 25.0103 22.1299V20.5112C25.4757 20.3589 25.9814 20.0711 26.5273 19.6479C27.0732 19.2205 27.4478 18.7233 27.6509 18.1562H29.0981V27.5Z" fill="#EEEEEE"></path></g> <path data-v-10c41ab4="" d="M53.118 11.575V21H54.444V17.269H56.069C58.37 17.269 59.982 16.762 59.982 14.422C59.982 12.095 58.37 11.575 56.069 11.575H53.118ZM56.173 12.693C57.564 12.693 58.63 12.888 58.63 14.422C58.63 15.969 57.564 16.112 56.173 16.112H54.444V12.693H56.173ZM64.5577 13.98C64.4147 13.967 64.3237 13.967 64.2067 13.967C63.2837 14.006 62.5817 14.435 62.2307 15.228V14.006H61.0737V21H62.2567V17.334C62.2567 15.787 62.8027 15.189 63.8947 15.189C64.0897 15.189 64.3107 15.202 64.5577 15.241V13.98ZM66.3738 17.529C66.3738 15.618 67.3878 14.929 68.4668 14.929C69.5458 14.929 70.5598 15.657 70.5598 17.529C70.5598 19.323 69.5458 20.129 68.4668 20.129C67.3878 20.129 66.3738 19.401 66.3738 17.529ZM68.4668 13.889C66.8418 13.889 65.1128 14.994 65.1128 17.529C65.1128 20.064 66.8418 21.169 68.4668 21.169C70.0918 21.169 71.8208 20.064 71.8208 17.529C71.8208 14.994 70.0918 13.889 68.4668 13.889ZM78.1344 15.111C77.7054 14.37 76.9774 13.889 75.8464 13.889C74.2344 13.889 72.8564 15.241 72.8564 17.529C72.8564 19.856 74.2344 21.169 75.8464 21.169C76.9774 21.169 77.7054 20.688 78.1344 19.947V21H79.3174V11.575H78.1344V15.111ZM78.1864 17.529C78.1864 19.375 77.1984 20.155 76.1454 20.155C74.9364 20.155 74.1434 19.206 74.1434 17.529C74.1434 15.852 74.9364 14.903 76.1454 14.903C77.1984 14.903 78.1864 15.683 78.1864 17.529ZM85.5121 21H86.6951V14.006H85.5121V17.854C85.5121 19.362 84.8621 20.142 83.7311 20.142C82.4311 20.142 82.2621 19.206 82.2621 18.127V14.006H81.0791V18.478C81.0791 20.077 81.7031 21.169 83.3151 21.169C84.4721 21.169 85.1091 20.662 85.5121 19.999V21ZM91.4707 13.889C89.4037 13.889 88.0907 15.436 88.0907 17.516C88.0907 19.648 89.3387 21.169 91.3537 21.169C92.9917 21.169 94.2267 20.038 94.4737 18.725H93.2517C93.0827 19.453 92.3937 20.129 91.3927 20.129C90.3527 20.129 89.3777 19.271 89.3777 17.503C89.3777 15.748 90.3527 14.929 91.3927 14.929C92.3157 14.929 93.0307 15.514 93.1997 16.346H94.3957C94.2267 15.15 93.1867 13.889 91.4707 13.889ZM96.1461 14.006H95.0411V14.955H96.1461V19.245C96.1461 20.701 96.4581 21 97.7971 21H98.6551V20.012H98.0571C97.3811 20.012 97.3291 19.83 97.3291 19.102V14.955H98.6551V14.006H97.3291V12.251H96.1461V14.006ZM109.582 11.575V15.579H104.629V11.575H103.303V21H104.629V16.723H109.582V21H110.908V11.575H109.582ZM117.288 21H118.471V14.006H117.288V17.854C117.288 19.362 116.638 20.142 115.507 20.142C114.207 20.142 114.038 19.206 114.038 18.127V14.006H112.855V18.478C112.855 20.077 113.479 21.169 115.091 21.169C116.248 21.169 116.885 20.662 117.288 19.999V21ZM121.531 14.006H120.348V21H121.531V17.204C121.531 15.696 122.233 14.916 123.377 14.916C124.729 14.916 124.911 15.852 124.911 16.931V21H126.094V16.58C126.094 14.981 125.483 13.889 123.793 13.889C122.61 13.889 121.934 14.396 121.531 15.059V14.006ZM128.202 14.006H127.097V14.955H128.202V19.245C128.202 20.701 128.514 21 129.853 21H130.711V20.012H130.113C129.437 20.012 129.385 19.83 129.385 19.102V14.955H130.711V14.006H129.385V12.251H128.202V14.006Z" fill="#737681" class="ProductHuntBadge__Font"></path> <defs data-v-10c41ab4=""><clipPath data-v-10c41ab4="" id="clip0_843_629"><rect data-v-10c41ab4="" width="24" height="31" fill="white" transform="translate(16 11)"></rect></clipPath></defs></svg>